<svg xmlns="http://www.w3.org/2000/svg" viewBox="0 0 49.33 32.07">
    <defs>
        <style>
        .cls-1 {
            fill: #636466;
        }

        .cls-2 {
            fill: #231f20;
        }

        .cls-3 {
            fill: #00a651;
        }

        .cls-4 {
            fill: #ed1c24;
        }
        </style>
    </defs>
    <g>
        <path class="cls-1" d="M1.29,29.09a1.2,1.2,0,0,1,.85.32,1.15,1.15,0,0,1,0,1.63,1.24,1.24,0,0,1-.87.32A1.16,1.16,0,0,1,.44,31a1.17,1.17,0,0,1,0-1.63,1.21,1.21,0,0,1,.85-.32m0,.3a.84.84,0,0,0-.62.24.83.83,0,0,0,.61,1.43.84.84,0,0,0,.62-.24.83.83,0,0,0,0-1.19.84.84,0,0,0-.61-.24" />
        <path class="cls-1" d="M4,30.27v1.06H3.73v-.81a.71.71,0,0,0-.06-.34.26.26,0,0,0-.23-.09.29.29,0,0,0-.16,0,1,1,0,0,0-.17.14v1.06H2.82V29.88h.29v.19a.6.6,0,0,1,.43-.22.47.47,0,0,1,.42.26.67.67,0,0,1,.49-.27.44.44,0,0,1,.34.16.65.65,0,0,1,.14.47v.86H4.64v-.86a.47.47,0,0,0-.07-.28.27.27,0,0,0-.21-.1.46.46,0,0,0-.34.18" />
        <path class="cls-1" d="M6.24,30.46v.62s0,.07,0,.07a.33.33,0,0,0,.16-.08v.18a.56.56,0,0,1-.15.08.28.28,0,0,1-.13,0A.2.2,0,0,1,6,31.21a.59.59,0,0,1-.39.14.33.33,0,0,1-.25-.1.32.32,0,0,1-.1-.25.36.36,0,0,1,.1-.25.74.74,0,0,1,.28-.17L6,30.46v-.08a.23.23,0,0,0-.26-.26.64.64,0,0,0-.46.24v-.31a.57.57,0,0,1,.48-.2A.58.58,0,0,1,6.1,30a.31.31,0,0,1,.08.11.29.29,0,0,1,.05.13,1.43,1.43,0,0,1,0,.25M6,31v-.43l-.19.08a.66.66,0,0,0-.21.11A.2.2,0,0,0,5.5,31a.25.25,0,0,0,0,.15.2.2,0,0,0,.15.06A.35.35,0,0,0,6,31" />
        <path class="cls-1" d="M7,29.88v.18a.56.56,0,0,1,.43-.21.48.48,0,0,1,.26.07.55.55,0,0,1,.18.19.93.93,0,0,1,.06.39v.83H7.64V30.5a.54.54,0,0,0-.07-.32.27.27,0,0,0-.23-.09.42.42,0,0,0-.34.2v1H6.7V29.88Z" />
        <path class="cls-1" d="M9.81,30.41l-.24-.15A1.13,1.13,0,0,1,9.25,30a.54.54,0,0,1-.09-.31.54.54,0,0,1,.18-.42.66.66,0,0,1,.47-.17.9.9,0,0,1,.5.16v.36a.73.73,0,0,0-.51-.23.39.39,0,0,0-.25.07.21.21,0,0,0-.1.18.28.28,0,0,0,.07.19.83.83,0,0,0,.24.18l.24.14a.72.72,0,0,1,.4.62.55.55,0,0,1-.18.43.64.64,0,0,1-.46.17,1,1,0,0,1-.59-.2v-.41a.73.73,0,0,0,.59.33A.41.41,0,0,0,10,31a.29.29,0,0,0,.09-.21c0-.14-.09-.26-.29-.38" />
        <path class="cls-1" d="M11.41,29.87a.75.75,0,0,1,.77.76.68.68,0,0,1-.23.52.76.76,0,0,1-.56.21.7.7,0,0,1-.54-.22.67.67,0,0,1-.22-.52.69.69,0,0,1,.22-.53.75.75,0,0,1,.56-.22m0,.26a.46.46,0,0,0-.34.14.45.45,0,0,0-.13.34.48.48,0,0,0,.13.35.52.52,0,0,0,.35.13.48.48,0,0,0,.35-.14.45.45,0,0,0,.13-.34.42.42,0,0,0-.14-.34.48.48,0,0,0-.35-.14" />
        <path class="cls-1" d="M13.59,31v.29a1.35,1.35,0,0,1-.43.08.72.72,0,0,1-.54-.21.69.69,0,0,1-.2-.54.77.77,0,0,1,.19-.55.7.7,0,0,1,.52-.21.68.68,0,0,1,.21,0l.22.08v.3a.78.78,0,0,0-.41-.13.41.41,0,0,0-.32.13.51.51,0,0,0-.12.35.48.48,0,0,0,.13.36.54.54,0,0,0,.37.13,1.07,1.07,0,0,0,.38-.1" />
        <path class="cls-1" d="M14.06,29.26a.17.17,0,0,1,.12,0,.17.17,0,0,1,.06.12.14.14,0,0,1-.06.12.13.13,0,0,1-.12.05.13.13,0,0,1-.11-.05.13.13,0,0,1,0-.12.13.13,0,0,1,0-.11.14.14,0,0,1,.11-.06m-.14.62h.29v1.45h-.29Z" />
        <path class="cls-1" d="M15.86,30.63h-1A.5.5,0,0,0,15,31a.48.48,0,0,0,.33.12.86.86,0,0,0,.53-.17v.28a.85.85,0,0,1-.26.12,1,1,0,0,1-.31,0,.67.67,0,0,1-.63-.36.86.86,0,0,1-.09-.39.77.77,0,0,1,.19-.54.64.64,0,0,1,.49-.21.55.55,0,0,1,.46.2.8.8,0,0,1,.17.54Zm-1-.17h.73a.42.42,0,0,0-.1-.27.39.39,0,0,0-.5,0,.43.43,0,0,0-.13.27" />
        <path class="cls-1" d="M16,30.11l.54-.53v.3H17v.25h-.46v.72c0,.16.07.25.21.25a.68.68,0,0,0,.33-.11v.27a.79.79,0,0,1-.37.1.44.44,0,0,1-.32-.12.27.27,0,0,1-.07-.08.37.37,0,0,1-.05-.11,1.47,1.47,0,0,1,0-.27v-.65H16Z" />
        <polygon class="cls-1" points="18.15 29.88 18.47 29.88 17.44 32.07 17.12 32.07 17.61 31.02 17.05 29.88 17.38 29.88 17.77 30.7 18.15 29.88" />
        <path class="cls-1" d="M19.6,29.88v-.09a.77.77,0,0,1,.15-.52.45.45,0,0,1,.36-.18l.22,0v.28l-.14,0a.26.26,0,0,0-.23.09.52.52,0,0,0-.07.32v.09h.26v.26h-.26v1.19H19.6V30.14h-.2v-.26Z" />
        <path class="cls-1" d="M21,29.87a.75.75,0,0,1,.78.76.68.68,0,0,1-.23.52.78.78,0,0,1-.56.21.7.7,0,0,1-.54-.22.67.67,0,0,1-.22-.52.69.69,0,0,1,.22-.53.74.74,0,0,1,.55-.22m0,.26a.46.46,0,0,0-.34.14.45.45,0,0,0-.13.34.48.48,0,0,0,.13.35.52.52,0,0,0,.35.13.48.48,0,0,0,.35-.14.45.45,0,0,0,.13-.34.42.42,0,0,0-.14-.34.48.48,0,0,0-.35-.14" />
        <path class="cls-1" d="M22.44,29.88v.33l0,0q.21-.33.42-.33a.51.51,0,0,1,.34.16l-.15.26a.46.46,0,0,0-.28-.15.28.28,0,0,0-.24.14.47.47,0,0,0-.11.31v.76h-.29V29.88Z" />
        <path class="cls-1" d="M24.34,31.33V29.12H25a.72.72,0,0,1,.5.17.58.58,0,0,1,.19.46.57.57,0,0,1-.36.56,1.48,1.48,0,0,1-.48.06h-.23v1ZM25,29.4h-.32v.69H25a.45.45,0,0,0,.3-.09.33.33,0,0,0,.1-.26c0-.23-.14-.34-.42-.34" />
        <path class="cls-1" d="M27.13,30.63h-1a.5.5,0,0,0,.14.33.49.49,0,0,0,.34.12.83.83,0,0,0,.52-.17v.28a.76.76,0,0,1-.26.12,1,1,0,0,1-.31,0,.67.67,0,0,1-.39-.1.58.58,0,0,1-.23-.26.86.86,0,0,1-.09-.39.77.77,0,0,1,.18-.54.64.64,0,0,1,.49-.21.54.54,0,0,1,.46.2.8.8,0,0,1,.18.54Zm-1-.17h.73a.37.37,0,0,0-.1-.27.33.33,0,0,0-.25-.09.37.37,0,0,0-.25.09.43.43,0,0,0-.13.27" />
        <path class="cls-1" d="M27.23,30.11l.55-.53v.3h.46v.25h-.46v.72c0,.16.06.25.2.25a.65.65,0,0,0,.33-.11v.27a.75.75,0,0,1-.36.1.48.48,0,0,1-.33-.12.27.27,0,0,1-.07-.08.36.36,0,0,1,0-.11.91.91,0,0,1,0-.27v-.65h-.26Z" />
        <path class="cls-1" d="M28.82,29.88v.33l0,0q.21-.33.42-.33a.51.51,0,0,1,.34.16l-.15.26a.43.43,0,0,0-.28-.15.28.28,0,0,0-.24.14.47.47,0,0,0-.11.31v.76h-.28V29.88Z" />
        <path class="cls-1" d="M30.41,29.87a.72.72,0,0,1,.55.22.7.7,0,0,1,.22.54.67.67,0,0,1-.22.52.78.78,0,0,1-.56.21.74.74,0,0,1-.55-.22.73.73,0,0,1,0-1.05.72.72,0,0,1,.55-.22m0,.26a.48.48,0,0,0-.48.48.48.48,0,0,0,.14.35.52.52,0,0,0,.35.13.48.48,0,0,0,.35-.14.45.45,0,0,0,.13-.34.42.42,0,0,0-.14-.34.48.48,0,0,0-.35-.14" />
        <rect class="cls-1" x="31.51" y="29.12" width="0.29" height="2.21" />
        <path class="cls-1" d="M33.45,30.63h-1a.5.5,0,0,0,.14.33.48.48,0,0,0,.33.12.86.86,0,0,0,.53-.17v.28a.85.85,0,0,1-.26.12,1,1,0,0,1-.31,0,.67.67,0,0,1-.63-.36.86.86,0,0,1-.09-.39.77.77,0,0,1,.19-.54.64.64,0,0,1,.49-.21.55.55,0,0,1,.46.2.8.8,0,0,1,.17.54Zm-1-.17h.73a.42.42,0,0,0-.1-.27.39.39,0,0,0-.5,0,.43.43,0,0,0-.13.27" />
        <path class="cls-1" d="M34.69,31.33v-.18a.8.8,0,0,1-.21.15.49.49,0,0,1-.23.06.59.59,0,0,1-.26-.07.52.52,0,0,1-.17-.19.93.93,0,0,1-.06-.39v-.83h.29v.83a.62.62,0,0,0,.06.32.27.27,0,0,0,.23.09.42.42,0,0,0,.35-.2v-1H35v1.45Z" />
        <path class="cls-1" d="M36.58,30.27v1.06h-.29v-.81a.59.59,0,0,0-.07-.34.25.25,0,0,0-.22-.09.33.33,0,0,0-.17,0,1,1,0,0,0-.17.14v1.06h-.29V29.88h.29v.19a.62.62,0,0,1,.43-.22.49.49,0,0,1,.43.26.63.63,0,0,1,.48-.27.46.46,0,0,1,.35.16.69.69,0,0,1,.14.47v.86H37.2v-.86a.47.47,0,0,0-.08-.28.27.27,0,0,0-.21-.1.43.43,0,0,0-.33.18" />
        <path class="cls-1" d="M39.37,30.41l-.24-.15A1.19,1.19,0,0,1,38.8,30a.54.54,0,0,1-.09-.31.54.54,0,0,1,.18-.42.68.68,0,0,1,.47-.17,1,1,0,0,1,.51.16v.36a.75.75,0,0,0-.52-.23.41.41,0,0,0-.25.07.21.21,0,0,0-.1.18.28.28,0,0,0,.07.19.83.83,0,0,0,.24.18l.24.14a.72.72,0,0,1,.4.62.54.54,0,0,1-.17.43.68.68,0,0,1-.47.17,1,1,0,0,1-.59-.2v-.41a.74.74,0,0,0,.59.33.41.41,0,0,0,.25-.08.3.3,0,0,0,.1-.21c0-.14-.1-.26-.29-.38" />
        <path class="cls-1" d="M41.5,30.63h-1a.46.46,0,0,0,.14.33.48.48,0,0,0,.33.12.86.86,0,0,0,.53-.17v.28a.8.8,0,0,1-.27.12.87.87,0,0,1-.3,0,.67.67,0,0,1-.63-.36.86.86,0,0,1-.09-.39.77.77,0,0,1,.19-.54.64.64,0,0,1,.49-.21.55.55,0,0,1,.46.2.8.8,0,0,1,.17.54Zm-1-.17h.73a.42.42,0,0,0-.1-.27.37.37,0,0,0-.25-.09.35.35,0,0,0-.25.09.43.43,0,0,0-.13.27" />
        <path class="cls-1" d="M42.12,29.88v.33l0,0q.21-.33.42-.33a.53.53,0,0,1,.34.16l-.16.26a.41.41,0,0,0-.27-.15.31.31,0,0,0-.25.14.52.52,0,0,0-.1.31v.76h-.29V29.88Z" />
        <polygon class="cls-1" points="44.08 29.88 44.4 29.88 43.75 31.36 43.66 31.36 43 29.88 43.31 29.88 43.7 30.77 44.08 29.88" />
        <path class="cls-1" d="M44.76,29.26a.17.17,0,0,1,.12,0,.21.21,0,0,1,0,.12.17.17,0,0,1,0,.12.13.13,0,0,1-.12.05.15.15,0,0,1-.12-.05.17.17,0,0,1,0-.12.16.16,0,0,1,0-.11.16.16,0,0,1,.12-.06m-.14.62h.28v1.45h-.28Z" />
        <path class="cls-1" d="M46.41,31v.29a1.25,1.25,0,0,1-.42.08.71.71,0,0,1-.75-.75.77.77,0,0,1,.2-.55.67.67,0,0,1,.52-.21.65.65,0,0,1,.2,0,1,1,0,0,1,.22.08v.3a.78.78,0,0,0-.4-.13.41.41,0,0,0-.32.13.48.48,0,0,0-.13.35.49.49,0,0,0,.14.36.53.53,0,0,0,.36.13,1,1,0,0,0,.38-.1" />
        <path class="cls-1" d="M48,30.63H47a.5.5,0,0,0,.14.33.49.49,0,0,0,.34.12.83.83,0,0,0,.52-.17v.28a.76.76,0,0,1-.26.12,1,1,0,0,1-.31,0,.67.67,0,0,1-.39-.1.73.73,0,0,1-.23-.26.86.86,0,0,1-.09-.39.73.73,0,0,1,.19-.54.6.6,0,0,1,.48-.21.57.57,0,0,1,.47.2.85.85,0,0,1,.17.54Zm-1-.17h.73a.37.37,0,0,0-.1-.27.33.33,0,0,0-.25-.09.37.37,0,0,0-.25.09.43.43,0,0,0-.13.27" />
        <path class="cls-1" d="M48.22,31.23v-.31a1.19,1.19,0,0,0,.25.13.48.48,0,0,0,.21.06.3.3,0,0,0,.16-.05.12.12,0,0,0,.06-.1.15.15,0,0,0,0-.11.9.9,0,0,0-.18-.12,1.31,1.31,0,0,1-.37-.26.46.46,0,0,1-.08-.24.34.34,0,0,1,.13-.28.52.52,0,0,1,.33-.1.91.91,0,0,1,.44.12v.28a.89.89,0,0,0-.42-.15.25.25,0,0,0-.13,0,.11.11,0,0,0,0,.1.12.12,0,0,0,0,.09.71.71,0,0,0,.17.11l.1.06c.24.14.36.29.36.46a.34.34,0,0,1-.14.29.52.52,0,0,1-.36.12.85.85,0,0,1-.23,0,1.83,1.83,0,0,1-.25-.1" />
        <path class="cls-1" d="M.62,27.38a.56.56,0,0,1-.41-.17A.77.77,0,0,1,0,26.62c0-.55.21-.82.62-.82h.64v1.3h.4v.28ZM1,26.06H.63a.29.29,0,0,0-.27.2,1,1,0,0,0-.06.36.59.59,0,0,0,.07.31.27.27,0,0,0,.26.17H1Zm-.45-.87H.81v.31H.52Zm.45,0h.29v.31H1Z" />
        <rect class="cls-1" x="1.56" y="27.1" width="0.47" height="0.28" />
        <rect class="cls-1" x="1.91" y="27.1" width="0.47" height="0.28" />
        <path class="cls-1" d="M2.2,27.68h.29V28H2.2Zm1.13-.3a.64.64,0,0,1-.52-.21.59.59,0,0,1-.5.21H2.26V27.1h.05c.23,0,.34-.11.34-.33v-1h.29v1c0,.21.13.32.39.32h0v.28Zm-.67.3H3V28H2.66Z" />
        <rect class="cls-1" x="3.28" y="27.1" width="0.47" height="0.28" />
        <rect class="cls-1" x="3.63" y="27.1" width="0.47" height="0.28" />
        <path class="cls-1" d="M4,27.38V27.1h.22V25.4h.29l0,1.2q.31-.72.84-.72a.58.58,0,0,1,.48.22.82.82,0,0,1,.14.47.94.94,0,0,1-.15.53h.42v.28Zm1.56-1.1a.28.28,0,0,0-.26-.14.67.67,0,0,0-.56.39,2.94,2.94,0,0,0-.25.57h.74c.28,0,.41-.18.41-.54a.51.51,0,0,0-.08-.28" />
        <rect class="cls-1" x="6.11" y="27.1" width="0.47" height="0.28" />
        <path class="cls-1" d="M7.68,27.38a1.26,1.26,0,0,1-.38-.06,1.21,1.21,0,0,1-.38.06H6.46V27.1H7a.87.87,0,0,1-.34-.64A.66.66,0,0,1,6.82,26a.73.73,0,0,1,1,0,.62.62,0,0,1,.19.48.84.84,0,0,1-.34.64h.51v.28ZM7,26.16a.41.41,0,0,0-.1.29A.64.64,0,0,0,7.3,27a.64.64,0,0,0,.37-.56.41.41,0,0,0-.1-.29.39.39,0,0,0-.54,0m.12-1h.29v.31H7.15Z" />
        <rect class="cls-1" x="8.04" y="27.1" width="0.47" height="0.28" />
        <path class="cls-1" d="M9.46,27.38a.64.64,0,0,1-.52-.21.58.58,0,0,1-.5.21h0V27.1h0c.23,0,.34-.11.34-.33v-1h.29v1c0,.21.13.32.39.32h0v.28Zm-.68-2.19h.29v.31H8.78Z" />
        <rect class="cls-1" x="9.41" y="27.1" width="0.47" height="0.28" />
        <path class="cls-1" d="M10.27,27.2a.72.72,0,0,1-.51.18V27.1a.36.36,0,0,0,.41-.4V25.19h.29v1.52a.63.63,0,0,1-.19.49" />
        <rect class="cls-1" x="10.78" y="25.19" width="0.29" height="2.2" />
        <path class="cls-1" d="M13.76,27.2a.64.64,0,0,1-.49.18h-.62a.66.66,0,0,1-.49-.18.64.64,0,0,1-.18-.49V25.8h.29v.9c0,.27.12.4.36.4h.64c.25,0,.38-.13.38-.4v-.9h.28v.91a.65.65,0,0,1-.17.49m-1.17-2h.29v.31h-.29Zm.45,0h.29v.31H13Z" />
        <path class="cls-1" d="M14.45,27.2a.61.61,0,0,1-.19-.49V25.19h.29V26.7a.35.35,0,0,0,.4.4v.28a.68.68,0,0,1-.5-.18" />
        <rect class="cls-1" x="14.87" y="27.1" width="0.47" height="0.28" />
        <rect class="cls-1" x="15.22" y="27.1" width="0.47" height="0.28" />
        <path class="cls-1" d="M17.06,27.16a.63.63,0,0,1-1,0,.55.55,0,0,1-.49.25V27.1a.29.29,0,0,0,.29-.22,1,1,0,0,0,0-.39h0a1,1,0,0,1,.18-.59.63.63,0,0,1,.95,0,1,1,0,0,1,.18.63,1,1,0,0,1-.18.62m-.48-1.22q-.36,0-.36.6c0,.39.12.59.36.59s.36-.2.36-.58-.12-.61-.36-.61" />
        <path class="cls-1" d="M17.56,27.38V27.1h.72v-.59a.77.77,0,0,0-.06-.37A.21.21,0,0,0,18,26l0-.26a.5.5,0,0,1,.32.11.41.41,0,0,1,.18.27v1H19v.28Z" />
        <path class="cls-1" d="M18.93,27.38V27.1H20a.85.85,0,0,0-.87-1v-.27a1,1,0,0,1,.88.38,1.32,1.32,0,0,1,.27.89h.44v.28Zm.49-2.19h.29v.31h-.29Z" />
        <rect class="cls-1" x="20.63" y="27.1" width="0.47" height="0.28" />
        <rect class="cls-1" x="20.98" y="27.1" width="0.47" height="0.28" />
        <path class="cls-1" d="M22.4,27.38a.64.64,0,0,1-.52-.21.6.6,0,0,1-.5.21h-.05V27.1h.05a.3.3,0,0,0,.34-.33V25.19H22v1.59c0,.21.13.32.39.32h.05v.28Z" />
        <path class="cls-1" d="M22.86,27.2a.72.72,0,0,1-.51.18V27.1a.36.36,0,0,0,.41-.4V25.19H23v1.52a.66.66,0,0,1-.18.49" />
        <path class="cls-1" d="M24.58,27.38a.54.54,0,0,1-.41-.17.74.74,0,0,1-.21-.59c0-.55.2-.82.62-.82h.64v1.3h.4v.28Zm.35-1.32h-.34a.29.29,0,0,0-.27.2,1,1,0,0,0-.07.36.59.59,0,0,0,.08.31.27.27,0,0,0,.26.17h.34Zm-.46-.87h.29v.31h-.29Zm.46,0h.28v.31h-.28Z" />
        <rect class="cls-1" x="25.51" y="27.1" width="0.47" height="0.28" />
        <path class="cls-1" d="M25.81,27.68h.29V28h-.29Zm1.12-.3a.62.62,0,0,1-.51-.21.61.61,0,0,1-.51.21h-.05V27.1h.05c.23,0,.35-.11.35-.33v-1h.29v1c0,.21.13.32.38.32H27v.28Zm-.67.3h.29V28h-.29Z" />
        <path class="cls-1" d="M27.52,27.2a.68.68,0,0,1-.5.18h-.16V27.1H27c.25,0,.38-.13.38-.4v-.9h.29v.91a.68.68,0,0,1-.17.49m-.12-2h.29v.31H27.4Z" />
        <path class="cls-1" d="M28.21,27.2a.61.61,0,0,1-.19-.49V25.19h.29V26.7a.36.36,0,0,0,.41.4v.28a.68.68,0,0,1-.5-.18" />
        <rect class="cls-1" x="28.63" y="27.1" width="0.47" height="0.28" />
        <rect class="cls-1" x="28.98" y="27.1" width="0.47" height="0.28" />
        <rect class="cls-1" x="29.33" y="27.1" width="0.47" height="0.28" />
        <path class="cls-1" d="M31.76,27.38a.67.67,0,0,1-.43-.14.61.61,0,0,1-.61.45.58.58,0,0,1-.59-.43.63.63,0,0,1-.4.12h-.05V27.1h.05c.21,0,.32-.1.33-.29a1,1,0,0,1,.19-.6.59.59,0,0,1,.47-.22.6.6,0,0,1,.5.25.87.87,0,0,1,.16.54c0,.21.12.32.38.32h.06v.28Zm-1-1.13c-.23,0-.35.19-.35.59s.12.57.35.57.36-.19.36-.57-.12-.59-.36-.59" />
        <rect class="cls-1" x="31.71" y="27.1" width="0.47" height="0.28" />
        <path class="cls-1" d="M33.5,27.38a1.26,1.26,0,0,1-.33-.05,1.14,1.14,0,0,1-.33.05h-.78V27.1h.79l-.54-.49a.78.78,0,0,1,.23-.58.93.93,0,0,1,1.27,0,.75.75,0,0,1,.23.58l-.54.49h.78v.28Zm.07-1.18a.53.53,0,0,0-.39-.16h0a.53.53,0,0,0-.39.15.48.48,0,0,0-.16.36l.55.51.55-.51a.49.49,0,0,0-.15-.35" />
        <rect class="cls-1" x="34.18" y="27.1" width="0.47" height="0.28" />
        <path class="cls-1" d="M35,27.2a.71.71,0,0,1-.51.18V27.1a.36.36,0,0,0,.41-.4V25.19h.29v1.52a.63.63,0,0,1-.19.49" />
        <rect class="cls-1" x="35.56" y="25.19" width="0.29" height="2.2" />
        <path class="cls-1" d="M37.38,27.38a.53.53,0,0,1-.41-.17.74.74,0,0,1-.22-.59c0-.55.21-.82.63-.82H38v1.3h.39v.28Zm.35-1.32h-.34a.29.29,0,0,0-.27.2.8.8,0,0,0-.07.36.51.51,0,0,0,.08.31.27.27,0,0,0,.26.17h.34Zm-.46-.87h.29v.31h-.29Zm.45,0H38v.31h-.29Z" />
        <rect class="cls-1" x="38.31" y="27.1" width="0.47" height="0.28" />
        <rect class="cls-1" x="38.66" y="27.1" width="0.47" height="0.28" />
        <rect class="cls-1" x="39.01" y="27.1" width="0.47" height="0.28" />
        <rect class="cls-1" x="39.36" y="27.1" width="0.47" height="0.28" />
        <path class="cls-1" d="M39.65,27.68h.29V28h-.29Zm1.13-.3a.64.64,0,0,1-.52-.21.58.58,0,0,1-.5.21h0V27.1h0c.23,0,.34-.11.34-.33v-1h.29v1c0,.21.13.32.39.32h0v.28Zm-.67.3h.29V28h-.29Z" />
        <rect class="cls-1" x="40.73" y="27.1" width="0.47" height="0.28" />
        <path class="cls-1" d="M42.52,27.38a1.2,1.2,0,0,1-.33-.05,1.14,1.14,0,0,1-.33.05h-.78V27.1h.78l-.53-.49a.78.78,0,0,1,.23-.58.83.83,0,0,1,.63-.25.87.87,0,0,1,.64.25.78.78,0,0,1,.23.58l-.54.49h.78v.28Zm.07-1.18A.53.53,0,0,0,42.2,26h0a.53.53,0,0,0-.39.15.48.48,0,0,0-.16.36l.55.51.55-.51a.49.49,0,0,0-.15-.35" />
        <rect class="cls-1" x="43.2" y="27.1" width="0.47" height="0.28" />
        <path class="cls-1" d="M45.63,27.38a.67.67,0,0,1-.43-.14.6.6,0,0,1-.6.45.59.59,0,0,1-.6-.43.62.62,0,0,1-.4.12h-.05V27.1h.05c.21,0,.32-.1.33-.29a1,1,0,0,1,.19-.6A.59.59,0,0,1,44.6,26a.58.58,0,0,1,.49.25.87.87,0,0,1,.16.54c0,.21.12.32.38.32h.06v.28Zm-1-1.13c-.24,0-.36.19-.36.59s.12.57.36.57.35-.19.35-.57-.12-.59-.35-.59" />
        <rect class="cls-1" x="45.58" y="27.1" width="0.47" height="0.28" />
        <path class="cls-1" d="M46,27.38V27.1H47a.93.93,0,0,0-.43-.9,1,1,0,0,0-.43-.1v-.27a1.06,1.06,0,0,1,.88.38,1.37,1.37,0,0,1,.27.89h.42v.28Zm.51.29h.29V28h-.29Z" />
        <rect class="cls-1" x="47.66" y="27.1" width="0.47" height="0.28" />
        <path class="cls-1" d="M48.52,27.2a.69.69,0,0,1-.51.18V27.1c.28,0,.41-.13.41-.4V25.19h.29v1.52a.63.63,0,0,1-.19.49" />
        <rect class="cls-1" x="49.04" y="25.19" width="0.29" height="2.2" />
        <path class="cls-2" d="M26,11.71l-.48-.38a2.63,2.63,0,0,1-1-2.21h0a2.62,2.62,0,0,1-1,2.21l-.5.38a2.93,2.93,0,0,0-1.35,2.36,2.82,2.82,0,1,0,5.64,0A2.93,2.93,0,0,0,26,11.71M22.89,15.9l.25-.16a3.5,3.5,0,0,0,.7.77,2.82,2.82,0,0,1-.95-.61m.44-3.6a2.6,2.6,0,0,0-.42,3.07l-.35.15a2.47,2.47,0,0,1-.44-1.45,3,3,0,0,1,1.44-2.36l.5-.38a4.89,4.89,0,0,1-.73,1" />
        <path class="cls-3" d="M29.39,14.07H27.87a3.41,3.41,0,1,1-5.31-2.82L23,11a3.38,3.38,0,0,0,1.5-2.82V5.54a4.94,4.94,0,0,1-2.37,4.22l-.19.1a4.93,4.93,0,1,0,7.5,4.21" />
        <path class="cls-4" d="M24.46,22.23A8.14,8.14,0,0,1,20.21,7.14L20.52,7a8.14,8.14,0,0,0,3.92-7l0,4.35A5.6,5.6,0,0,1,22,9l-.66.41a5.63,5.63,0,0,0,3.14,10.29Z" />
        <path class="cls-4" d="M26.44,20.24a.48.48,0,0,1,.61.35.47.47,0,0,1-.33.62.48.48,0,0,1-.61-.34.49.49,0,0,1,.33-.63m-.24-.82A1.35,1.35,0,1,0,27,22a1.32,1.32,0,0,0,1-1.69,1.34,1.34,0,0,0-1.76-.89" />
        <path class="cls-4" d="M28.66,19l.07-.06c.12-.1.28-.22.41-.06s0,.3-.11.4L29,19.3Zm.53,2,.7-.59-.51-.6.37-.31a.8.8,0,0,0,.1-1.22.93.93,0,0,0-1.43,0l-.91.77Z" />
        <path class="cls-4" d="M31,17.72l-.61-.54v0l.33.11.45.12Zm.45.45.35-.63.33.08.49-.87-2.73-.46-.51.91,1.83,2.07.49-.88Z" />
        <polygon class="cls-4" points="30.16 15.58 30.3 14.64 32.06 14.91 32.18 14.12 33.01 14.24 32.74 15.97 30.16 15.58" />
    </g>
</svg>