<svg xmlns="http://www.w3.org/2000/svg" viewBox="0 0 90.08 29.76">
    <defs>
        <style>
        .cls-1 {
            fill: #646363;
        }

        .cls-2 {
            fill: #1d1d1b;
        }

        .cls-3 {
            fill: #009641;
        }

        .cls-4 {
            fill: #e30613;
        }
        </style>
    </defs>
    <g>
        <path class="cls-1" d="M25.76,21.26a1.6,1.6,0,0,1,1.14.43,1.47,1.47,0,0,1,.46,1.09,1.42,1.42,0,0,1-.46,1.08,1.64,1.64,0,0,1-1.17.43,1.53,1.53,0,0,1-1.11-.43,1.4,1.4,0,0,1-.45-1.07,1.47,1.47,0,0,1,.45-1.1,1.57,1.57,0,0,1,1.14-.43m0,.4a1.16,1.16,0,0,0-.83.32,1.07,1.07,0,0,0-.33.81,1,1,0,0,0,.33.79,1.1,1.1,0,0,0,.82.32,1.16,1.16,0,0,0,.83-.32,1.1,1.1,0,0,0,.33-.81,1.06,1.06,0,0,0-.33-.79,1.14,1.14,0,0,0-.82-.32" />
        <path class="cls-1" d="M29.42,22.84v1.42H29V23.17a.84.84,0,0,0-.09-.45.33.33,0,0,0-.3-.13.43.43,0,0,0-.22.06,1.14,1.14,0,0,0-.23.19v1.42H27.8v-2h.39v.26a.84.84,0,0,1,.58-.3.65.65,0,0,1,.57.35.89.89,0,0,1,.64-.35.62.62,0,0,1,.47.2,1,1,0,0,1,.18.64v1.15h-.38V23.1a.58.58,0,0,0-.1-.37.36.36,0,0,0-.29-.13.58.58,0,0,0-.44.24" />
        <path class="cls-1" d="M32.39,23.09v.82c0,.07,0,.1.07.1a.45.45,0,0,0,.21-.1v.23a.78.78,0,0,1-.21.12.45.45,0,0,1-.16,0c-.17,0-.27-.06-.3-.19a.85.85,0,0,1-.52.19.48.48,0,0,1-.34-.14.45.45,0,0,1-.13-.34.44.44,0,0,1,.13-.32.79.79,0,0,1,.38-.23l.49-.17V23a.31.31,0,0,0-.35-.35A.86.86,0,0,0,31,23v-.42a.8.8,0,0,1,.65-.27.72.72,0,0,1,.5.17.33.33,0,0,1,.12.14.58.58,0,0,1,.06.17,2.22,2.22,0,0,1,0,.34m-.38.78v-.58l-.26.1a1.3,1.3,0,0,0-.28.16.28.28,0,0,0-.08.2.3.3,0,0,0,.08.2.27.27,0,0,0,.2.07.5.5,0,0,0,.34-.15" />
        <path class="cls-1" d="M33.4,22.31v.25a.78.78,0,0,1,.58-.29.57.57,0,0,1,.34.1.58.58,0,0,1,.24.25,1.18,1.18,0,0,1,.08.52v1.12h-.38V23.15a.79.79,0,0,0-.09-.43.38.38,0,0,0-.31-.13.57.57,0,0,0-.46.28v1.39H33v-2Z" />
        <path class="cls-1" d="M37.17,23l-.32-.2a1.36,1.36,0,0,1-.43-.36.67.67,0,0,1-.13-.41.73.73,0,0,1,.24-.57.9.9,0,0,1,.63-.22,1.16,1.16,0,0,1,.68.21V22a1,1,0,0,0-.69-.31.62.62,0,0,0-.34.1.31.31,0,0,0-.13.24.35.35,0,0,0,.1.25,1.23,1.23,0,0,0,.31.25l.33.19a.94.94,0,0,1,.54.82.75.75,0,0,1-.24.58.86.86,0,0,1-.62.22,1.31,1.31,0,0,1-.8-.27v-.54a1,1,0,0,0,.8.44.52.52,0,0,0,.33-.11.35.35,0,0,0,.13-.28q0-.27-.39-.51" />
        <path class="cls-1" d="M39.3,22.31a1,1,0,0,1,.74.28,1,1,0,0,1,.3.72.91.91,0,0,1-.3.7,1,1,0,0,1-.75.28,1,1,0,0,1-.74-.28,1,1,0,0,1-.29-.71.94.94,0,0,1,.3-.71,1,1,0,0,1,.74-.28m0,.34a.58.58,0,0,0-.45.19.62.62,0,0,0-.18.46.58.58,0,0,0,.18.45.64.64,0,0,0,.47.18.62.62,0,0,0,.46-.18.63.63,0,0,0,.19-.46.62.62,0,0,0-.19-.45.65.65,0,0,0-.48-.19" />
        <path class="cls-1" d="M42.22,23.8v.38a1.43,1.43,0,0,1-.56.11.93.93,0,0,1-1-1,1,1,0,0,1,.26-.74,1,1,0,0,1,.7-.28,1.12,1.12,0,0,1,.27,0,1.19,1.19,0,0,1,.29.11v.41a1,1,0,0,0-.54-.19.57.57,0,0,0-.43.18.69.69,0,0,0-.16.47.65.65,0,0,0,.18.48.69.69,0,0,0,.48.17,1.2,1.2,0,0,0,.51-.13" />
        <path class="cls-1" d="M42.86,21.49a.22.22,0,0,1,.17.07.21.21,0,0,1,.06.16.25.25,0,0,1-.06.16.26.26,0,0,1-.17.07.23.23,0,0,1-.15-.39.18.18,0,0,1,.15-.07m-.19.82h.39v2h-.39Z" />
        <path class="cls-1" d="M45.27,23.32H43.9a.66.66,0,0,0,.19.44.63.63,0,0,0,.45.17,1.16,1.16,0,0,0,.7-.24v.38a1.6,1.6,0,0,1-.35.17,1.7,1.7,0,0,1-.41.05.89.89,0,0,1-.52-.14.84.84,0,0,1-.32-.35,1.12,1.12,0,0,1-.12-.53,1,1,0,0,1,.25-.72.87.87,0,0,1,.65-.28.77.77,0,0,1,.62.27,1.07,1.07,0,0,1,.23.73Zm-1.36-.23h1a.51.51,0,0,0-.14-.36.45.45,0,0,0-.33-.12.5.5,0,0,0-.34.12.71.71,0,0,0-.17.36" />
        <path class="cls-1" d="M45.42,22.62l.72-.71v.4h.62v.35h-.62v.95c0,.23.09.34.28.34a.9.9,0,0,0,.44-.14v.36a1,1,0,0,1-.49.12.67.67,0,0,1-.44-.15.48.48,0,0,1-.09-.11,1.16,1.16,0,0,1-.06-.15,1.53,1.53,0,0,1,0-.36v-.86h-.34Z" />
        <polygon class="cls-1" points="48.33 22.31 48.76 22.31 47.38 25.25 46.95 25.25 47.61 23.84 46.86 22.31 47.3 22.31 47.83 23.41 48.33 22.31" />
        <path class="cls-1" d="M50.28,22.31v-.12a1.08,1.08,0,0,1,.2-.7.62.62,0,0,1,.48-.23,1.81,1.81,0,0,1,.29,0v.38a.65.65,0,0,0-.18,0,.38.38,0,0,0-.32.12.88.88,0,0,0-.08.43v.12H51v.35h-.34v1.6h-.39v-1.6H50v-.35Z" />
        <path class="cls-1" d="M52.21,22.31a1,1,0,0,1,.74.28.94.94,0,0,1,.29.72.91.91,0,0,1-.3.7,1,1,0,0,1-.75.28,1,1,0,0,1-.73-.28.92.92,0,0,1-.29-.71,1,1,0,0,1,.29-.71,1,1,0,0,1,.75-.28m0,.34a.59.59,0,0,0-.46.19.65.65,0,0,0-.17.46.58.58,0,0,0,.18.45.64.64,0,0,0,.47.18.62.62,0,0,0,.64-.64.58.58,0,0,0-.19-.45.61.61,0,0,0-.47-.19" />
        <path class="cls-1" d="M54.08,22.31v.45l0,0c.19-.3.38-.45.56-.45a.73.73,0,0,1,.46.22l-.2.34a.57.57,0,0,0-.38-.19.4.4,0,0,0-.32.18.68.68,0,0,0-.14.42v1H53.7v-2Z" />
        <path class="cls-1" d="M56.62,24.26v-3h.94a.91.91,0,0,1,.67.23.77.77,0,0,1,.26.61.91.91,0,0,1-.13.46.79.79,0,0,1-.36.29,2,2,0,0,1-.64.09h-.31v1.28Zm.87-2.59h-.44v.93h.46a.6.6,0,0,0,.4-.12.45.45,0,0,0,.14-.35c0-.3-.19-.46-.56-.46" />
        <path class="cls-1" d="M60.35,23.32H59a.66.66,0,0,0,.19.44.63.63,0,0,0,.45.17,1.14,1.14,0,0,0,.7-.24v.38a1.6,1.6,0,0,1-.35.17,1.7,1.7,0,0,1-.41.05.89.89,0,0,1-.52-.14.84.84,0,0,1-.32-.35,1.12,1.12,0,0,1-.12-.53,1,1,0,0,1,.25-.72.87.87,0,0,1,.65-.28.77.77,0,0,1,.62.27,1.07,1.07,0,0,1,.23.73ZM59,23.09h1a.51.51,0,0,0-.14-.36.45.45,0,0,0-.33-.12.5.5,0,0,0-.34.12.71.71,0,0,0-.17.36" />
        <path class="cls-1" d="M60.5,22.62l.72-.71v.4h.62v.35h-.62v.95c0,.23.09.34.28.34a.9.9,0,0,0,.44-.14v.36a1,1,0,0,1-.49.12.67.67,0,0,1-.44-.15.48.48,0,0,1-.09-.11,1.16,1.16,0,0,1-.06-.15,1.53,1.53,0,0,1,0-.36v-.86H60.5Z" />
        <path class="cls-1" d="M62.63,22.31v.45l0,0c.19-.3.37-.45.56-.45a.73.73,0,0,1,.45.22l-.2.34a.55.55,0,0,0-.37-.19.41.41,0,0,0-.33.18.68.68,0,0,0-.13.42v1h-.39v-2Z" />
        <path class="cls-1" d="M64.76,22.31a1,1,0,0,1,.73.28,1,1,0,0,1,.3.72.91.91,0,0,1-.3.7,1,1,0,0,1-.75.28A1,1,0,0,1,64,24a.93.93,0,0,1-.3-.71.94.94,0,0,1,.3-.71,1,1,0,0,1,.75-.28m0,.34a.58.58,0,0,0-.45.19.62.62,0,0,0-.18.46.58.58,0,0,0,.18.45.64.64,0,0,0,.47.18.62.62,0,0,0,.46-.18.59.59,0,0,0,.19-.46.62.62,0,0,0-.19-.45.65.65,0,0,0-.48-.19" />
        <rect class="cls-1" x="66.22" y="21.3" width="0.39" height="2.96" />
        <path class="cls-1" d="M68.83,23.32H67.46a.65.65,0,0,0,.18.44.64.64,0,0,0,.45.17,1.14,1.14,0,0,0,.7-.24v.38a1.41,1.41,0,0,1-.35.17,1.64,1.64,0,0,1-.41.05.91.91,0,0,1-.84-.49,1.12,1.12,0,0,1-.12-.53,1,1,0,0,1,.25-.72.87.87,0,0,1,.66-.28.78.78,0,0,1,.62.27,1.12,1.12,0,0,1,.23.73Zm-1.37-.23h1a.56.56,0,0,0-.13-.36.45.45,0,0,0-.33-.12.49.49,0,0,0-.34.12.65.65,0,0,0-.18.36" />
        <path class="cls-1" d="M70.48,24.26V24a.83.83,0,0,1-.28.21.7.7,0,0,1-.31.07.67.67,0,0,1-.34-.09.64.64,0,0,1-.24-.25,1.31,1.31,0,0,1-.08-.52V22.31h.39v1.11a.74.74,0,0,0,.09.43A.36.36,0,0,0,70,24a.56.56,0,0,0,.46-.27V22.31h.39v2Z" />
        <path class="cls-1" d="M73,22.84v1.42h-.39V23.17a.84.84,0,0,0-.09-.45.36.36,0,0,0-.3-.13.43.43,0,0,0-.22.06.92.92,0,0,0-.23.19v1.42h-.39v-2h.39v.26a.83.83,0,0,1,.58-.3.65.65,0,0,1,.57.35.87.87,0,0,1,.64-.35.62.62,0,0,1,.47.2,1,1,0,0,1,.18.64v1.15h-.38V23.1a.58.58,0,0,0-.1-.37.36.36,0,0,0-.29-.13.58.58,0,0,0-.44.24" />
        <path class="cls-1" d="M76.74,23l-.32-.2a1.48,1.48,0,0,1-.43-.36.76.76,0,0,1,.11-1,.92.92,0,0,1,.64-.22,1.16,1.16,0,0,1,.67.21V22a1,1,0,0,0-.68-.31.57.57,0,0,0-.34.1.29.29,0,0,0-.14.24.35.35,0,0,0,.1.25,1.31,1.31,0,0,0,.32.25l.32.19a.94.94,0,0,1,.54.82.75.75,0,0,1-.24.58.86.86,0,0,1-.62.22,1.28,1.28,0,0,1-.79-.27v-.54a1,1,0,0,0,.79.44.52.52,0,0,0,.33-.11.35.35,0,0,0,.13-.28q0-.27-.39-.51" />
        <path class="cls-1" d="M79.6,23.32H78.23a.62.62,0,0,0,.19.44.63.63,0,0,0,.45.17,1.16,1.16,0,0,0,.7-.24v.38a1.6,1.6,0,0,1-.35.17,1.7,1.7,0,0,1-.41.05.89.89,0,0,1-.52-.14A.84.84,0,0,1,78,23.8a1.12,1.12,0,0,1-.12-.53,1,1,0,0,1,.25-.72.87.87,0,0,1,.65-.28.77.77,0,0,1,.62.27,1.07,1.07,0,0,1,.23.73Zm-1.36-.23h1a.51.51,0,0,0-.14-.36.45.45,0,0,0-.33-.12.5.5,0,0,0-.34.12.71.71,0,0,0-.17.36" />
        <path class="cls-1" d="M80.43,22.31v.45l0,0c.19-.3.38-.45.56-.45a.73.73,0,0,1,.46.22l-.21.34a.53.53,0,0,0-.37-.19.4.4,0,0,0-.32.18.68.68,0,0,0-.14.42v1h-.38v-2Z" />
        <polygon class="cls-1" points="83.06 22.31 83.48 22.31 82.62 24.29 82.49 24.29 81.61 22.31 82.03 22.31 82.55 23.51 83.06 22.31" />
        <path class="cls-1" d="M84,21.49a.22.22,0,0,1,.17.07.21.21,0,0,1,.06.16.25.25,0,0,1-.06.16A.26.26,0,0,1,84,22a.23.23,0,0,1-.15-.07.22.22,0,0,1,0-.32.19.19,0,0,1,.15-.07m-.19.82h.39v2h-.39Z" />
        <path class="cls-1" d="M86.18,23.8v.38a1.51,1.51,0,0,1-.57.11.93.93,0,0,1-1-1,1.08,1.08,0,0,1,.26-.74,1,1,0,0,1,.7-.28,1.12,1.12,0,0,1,.27,0,1.19,1.19,0,0,1,.29.11v.41a1,1,0,0,0-.54-.19.57.57,0,0,0-.43.18.69.69,0,0,0-.16.47.65.65,0,0,0,.18.48.69.69,0,0,0,.49.17,1.27,1.27,0,0,0,.51-.13" />
        <path class="cls-1" d="M88.27,23.32H86.9a.66.66,0,0,0,.19.44.64.64,0,0,0,.45.17,1.14,1.14,0,0,0,.7-.24v.38a1.6,1.6,0,0,1-.35.17,1.7,1.7,0,0,1-.41.05.89.89,0,0,1-.52-.14.84.84,0,0,1-.32-.35,1.12,1.12,0,0,1-.12-.53,1,1,0,0,1,.25-.72.87.87,0,0,1,.65-.28.77.77,0,0,1,.62.27,1.07,1.07,0,0,1,.23.73Zm-1.36-.23h1a.56.56,0,0,0-.13-.36.49.49,0,0,0-.34-.12.46.46,0,0,0-.33.12.65.65,0,0,0-.18.36" />
        <path class="cls-1" d="M88.6,24.12V23.7a1.35,1.35,0,0,0,.33.19.71.71,0,0,0,.29.07.32.32,0,0,0,.2-.06.17.17,0,0,0,.09-.14.17.17,0,0,0-.06-.14.85.85,0,0,0-.24-.16,1.74,1.74,0,0,1-.49-.36.54.54,0,0,1-.11-.32.48.48,0,0,1,.17-.37.73.73,0,0,1,.45-.14,1.34,1.34,0,0,1,.59.16v.38a1.26,1.26,0,0,0-.56-.2.3.3,0,0,0-.18,0,.16.16,0,0,0-.07.13.18.18,0,0,0,.06.13,1,1,0,0,0,.22.15l.14.08c.32.18.48.38.48.61a.48.48,0,0,1-.18.39.77.77,0,0,1-.49.15,1,1,0,0,1-.3,0,1.9,1.9,0,0,1-.34-.13" />
        <path class="cls-1" d="M24.87,19a.75.75,0,0,1-.55-.22A1,1,0,0,1,24,18c0-.73.28-1.1.84-1.1h.85V18.6h.53V19Zm.47-1.77h-.46a.39.39,0,0,0-.36.27,1.14,1.14,0,0,0-.09.48.82.82,0,0,0,.1.42.39.39,0,0,0,.35.23h.46ZM24.72,16h.39v.42h-.39Zm.61,0h.39v.42h-.39Z" />
        <rect class="cls-1" x="26.12" y="18.6" width="0.63" height="0.38" />
        <rect class="cls-1" x="26.58" y="18.6" width="0.62" height="0.38" />
        <path class="cls-1" d="M27,19.36h.38v.42H27ZM28.49,19a.86.86,0,0,1-.69-.29.78.78,0,0,1-.68.29h-.07V18.6h.07a.4.4,0,0,0,.46-.45v-1.3H28v1.31c0,.29.17.44.52.44h.07V19Zm-.9.39H28v.42h-.39Z" />
        <rect class="cls-1" x="28.42" y="18.6" width="0.62" height="0.38" />
        <rect class="cls-1" x="28.89" y="18.6" width="0.62" height="0.38" />
        <path class="cls-1" d="M29.41,19V18.6h.28V16.32h.39L30,17.92c.3-.64.67-1,1.14-1a.73.73,0,0,1,.63.31,1,1,0,0,1,.19.62,1.26,1.26,0,0,1-.2.72h.57V19Zm2.08-1.48a.4.4,0,0,0-.34-.19.9.9,0,0,0-.76.53,3.72,3.72,0,0,0-.33.77h1c.37,0,.55-.25.55-.73a.68.68,0,0,0-.11-.38" />
        <rect class="cls-1" x="32.22" y="18.6" width="0.62" height="0.38" />
        <path class="cls-1" d="M34.32,19a1.48,1.48,0,0,1-.51-.09,1.52,1.52,0,0,1-.51.09h-.62V18.6h.68a1.17,1.17,0,0,1-.45-.87.91.91,0,0,1,1.54-.63.82.82,0,0,1,.25.63,1.17,1.17,0,0,1-.45.87h.68V19Zm-.87-1.64a.55.55,0,0,0-.14.39.85.85,0,0,0,.5.75.85.85,0,0,0,.5-.75.56.56,0,0,0-.14-.38.44.44,0,0,0-.36-.16.46.46,0,0,0-.36.15m.16-1.3H34v.42h-.38Z" />
        <rect class="cls-1" x="34.79" y="18.6" width="0.62" height="0.38" />
        <path class="cls-1" d="M36.7,19a.89.89,0,0,1-.7-.29.75.75,0,0,1-.67.29h-.07V18.6h.07a.4.4,0,0,0,.46-.45v-1.3h.39v1.31c0,.29.17.44.52.44h.07V19ZM35.79,16h.38v.42h-.38Z" />
        <rect class="cls-1" x="36.63" y="18.6" width="0.63" height="0.38" />
        <path class="cls-1" d="M37.78,18.73a.94.94,0,0,1-.68.24V18.6a.49.49,0,0,0,.55-.54V16H38v2a.85.85,0,0,1-.25.65" />
        <rect class="cls-1" x="38.47" y="16.03" width="0.39" height="2.94" />
        <path class="cls-1" d="M42.46,18.73a.93.93,0,0,1-.66.24H41a.82.82,0,0,1-.89-.89V16.85h.38v1.21c0,.35.16.54.48.54h.86c.34,0,.5-.19.5-.54V16.85h.39v1.23a.86.86,0,0,1-.23.65M40.89,16h.38v.41h-.38Zm.61,0h.39v.41H41.5Z" />
        <path class="cls-1" d="M43.38,18.73a.82.82,0,0,1-.25-.65V16h.38v2a.48.48,0,0,0,.54.54V19a.93.93,0,0,1-.67-.24" />
        <rect class="cls-1" x="43.94" y="18.6" width="0.63" height="0.38" />
        <rect class="cls-1" x="44.41" y="18.6" width="0.62" height="0.38" />
        <path class="cls-1" d="M46.88,18.67a.78.78,0,0,1-.65.3.75.75,0,0,1-.67-.34.73.73,0,0,1-.66.34V18.6a.42.42,0,0,0,.4-.3,1.67,1.67,0,0,0,.06-.52h0a1.26,1.26,0,0,1,.25-.79.82.82,0,0,1,1.26,0,1.33,1.33,0,0,1,.24.84,1.28,1.28,0,0,1-.23.83M46.23,17c-.32,0-.47.27-.47.82s.15.78.47.78.48-.26.48-.78-.16-.82-.48-.82" />
        <path class="cls-1" d="M47.55,19v-.38h1V17.8a1.17,1.17,0,0,0-.07-.5.29.29,0,0,0-.28-.13l.07-.35a.71.71,0,0,1,.43.13.63.63,0,0,1,.23.38,1.94,1.94,0,0,1,0,.27v1h.58V19Z" />
        <path class="cls-1" d="M49.38,19V18.6h1.44a1.24,1.24,0,0,0-.58-1.21,1.18,1.18,0,0,0-.58-.14V16.9a1.43,1.43,0,0,1,1.18.5,1.81,1.81,0,0,1,.37,1.2h.58V19ZM50,16h.39v.42H50Z" />
        <rect class="cls-1" x="51.65" y="18.6" width="0.63" height="0.38" />
        <rect class="cls-1" x="52.12" y="18.6" width="0.63" height="0.38" />
        <path class="cls-1" d="M54,19a.87.87,0,0,1-.69-.29.77.77,0,0,1-.68.29h-.06v-.38h.06c.31,0,.47-.14.47-.44V16h.38v2.14c0,.28.18.42.52.42h.07V19Z" />
        <path class="cls-1" d="M54.64,18.73A1,1,0,0,1,54,19V18.6a.48.48,0,0,0,.55-.54V16h.39v2a.85.85,0,0,1-.25.65" />
        <path class="cls-1" d="M56.94,19a.77.77,0,0,1-.55-.22,1.07,1.07,0,0,1-.28-.8c0-.73.28-1.1.83-1.1h.86V18.6h.53V19Zm.47-1.77H57a.39.39,0,0,0-.37.27,1.34,1.34,0,0,0-.08.48.82.82,0,0,0,.1.42.39.39,0,0,0,.35.23h.45ZM56.8,16h.39v.42H56.8Zm.61,0h.38v.42h-.38Z" />
        <rect class="cls-1" x="58.19" y="18.6" width="0.62" height="0.38" />
        <path class="cls-1" d="M58.58,19.36H59v.42h-.39ZM60.1,19a.89.89,0,0,1-.7-.29.76.76,0,0,1-.67.29h-.07V18.6h.07a.4.4,0,0,0,.46-.45v-1.3h.39v1.31c0,.29.17.44.52.44h.06V19Zm-.9.39h.38v.42H59.2Z" />
        <path class="cls-1" d="M60.88,18.73a.93.93,0,0,1-.67.24H60V18.6h.21a.48.48,0,0,0,.52-.54V16.85h.38v1.23a.89.89,0,0,1-.23.65M60.72,16h.39v.41h-.39Z" />
        <path class="cls-1" d="M61.8,18.73a.82.82,0,0,1-.25-.65V16h.39v2a.48.48,0,0,0,.54.54V19a.93.93,0,0,1-.67-.24" />
        <rect class="cls-1" x="62.36" y="18.6" width="0.63" height="0.38" />
        <rect class="cls-1" x="62.83" y="18.6" width="0.63" height="0.38" />
        <rect class="cls-1" x="63.3" y="18.6" width="0.62" height="0.38" />
        <path class="cls-1" d="M66.56,19a.86.86,0,0,1-.58-.19.8.8,0,0,1-.81.6.78.78,0,0,1-.79-.57.86.86,0,0,1-.55.16h-.06V18.6h.06c.29,0,.44-.14.45-.39a1.44,1.44,0,0,1,.25-.81.79.79,0,0,1,.64-.29.77.77,0,0,1,.66.33,1.14,1.14,0,0,1,.21.72c0,.29.17.44.52.44h.07V19Zm-1.39-1.52c-.32,0-.47.26-.47.79s.15.77.47.77.48-.26.48-.77-.16-.79-.48-.79" />
        <rect class="cls-1" x="66.5" y="18.6" width="0.62" height="0.38" />
        <path class="cls-1" d="M68.89,19a1.62,1.62,0,0,1-.44-.07A1.62,1.62,0,0,1,68,19H67V18.6H68l-.72-.67a1.07,1.07,0,0,1,.31-.77,1.11,1.11,0,0,1,.85-.33,1.13,1.13,0,0,1,.85.33,1,1,0,0,1,.31.77l-.72.67h1V19Zm.1-1.58a.72.72,0,0,0-.53-.21h0a.72.72,0,0,0-.53.2.64.64,0,0,0-.21.48l.74.68.74-.68a.65.65,0,0,0-.2-.47" />
        <rect class="cls-1" x="69.8" y="18.6" width="0.62" height="0.38" />
        <path class="cls-1" d="M71,18.73a1,1,0,0,1-.68.24V18.6a.48.48,0,0,0,.54-.54V16h.39v2a.85.85,0,0,1-.25.65" />
        <rect class="cls-1" x="71.64" y="16.03" width="0.39" height="2.94" />
        <path class="cls-1" d="M74.08,19a.77.77,0,0,1-.55-.22,1.07,1.07,0,0,1-.29-.8c0-.73.28-1.1.84-1.1h.85V18.6h.54V19Zm.47-1.77h-.46a.39.39,0,0,0-.36.27,1.14,1.14,0,0,0-.09.48.82.82,0,0,0,.1.42.39.39,0,0,0,.35.23h.46ZM73.94,16h.38v.42h-.38Zm.6,0h.39v.42h-.39Z" />
        <rect class="cls-1" x="75.33" y="18.6" width="0.63" height="0.38" />
        <rect class="cls-1" x="75.8" y="18.6" width="0.63" height="0.38" />
        <rect class="cls-1" x="76.27" y="18.6" width="0.62" height="0.38" />
        <rect class="cls-1" x="76.73" y="18.6" width="0.62" height="0.38" />
        <path class="cls-1" d="M77.13,19.36h.38v.42h-.38ZM78.64,19a.89.89,0,0,1-.7-.29.75.75,0,0,1-.67.29H77.2V18.6h.07a.4.4,0,0,0,.46-.45v-1.3h.39v1.31c0,.29.17.44.52.44h.07V19Zm-.9.39h.39v.42h-.39Z" />
        <rect class="cls-1" x="78.57" y="18.6" width="0.63" height="0.38" />
        <path class="cls-1" d="M81,19a1.69,1.69,0,0,1-.45-.07,1.5,1.5,0,0,1-.44.07H79V18.6h1l-.72-.67a1.06,1.06,0,0,1,.3-.77,1.27,1.27,0,0,1,1.71,0,1.06,1.06,0,0,1,.3.77L81,18.6h1V19Zm.09-1.58a.7.7,0,0,0-.52-.21h0a.69.69,0,0,0-.52.2.61.61,0,0,0-.21.48l.73.68.74-.68a.65.65,0,0,0-.2-.47" />
        <rect class="cls-1" x="81.87" y="18.6" width="0.63" height="0.38" />
        <path class="cls-1" d="M85.13,19a.86.86,0,0,1-.58-.19.8.8,0,0,1-.81.6.78.78,0,0,1-.79-.57.85.85,0,0,1-.54.16h-.07V18.6h.07a.38.38,0,0,0,.44-.39,1.37,1.37,0,0,1,.26-.81.76.76,0,0,1,.63-.29.8.8,0,0,1,.67.33,1.2,1.2,0,0,1,.21.72c0,.29.17.44.51.44h.07V19Zm-1.39-1.52c-.32,0-.47.26-.47.79s.15.77.47.77.48-.26.48-.77-.16-.79-.48-.79" />
        <rect class="cls-1" x="85.07" y="18.6" width="0.62" height="0.38" />
        <path class="cls-1" d="M85.56,19V18.6H87a1.24,1.24,0,0,0-.58-1.21,1.18,1.18,0,0,0-.58-.14V16.9a1.42,1.42,0,0,1,1.18.5,1.81,1.81,0,0,1,.37,1.2H88V19Zm.68.39h.39v.42h-.39Z" />
        <rect class="cls-1" x="87.85" y="18.6" width="0.62" height="0.38" />
        <path class="cls-1" d="M89,18.73a1,1,0,0,1-.69.24V18.6a.48.48,0,0,0,.55-.54V16h.39v2a.89.89,0,0,1-.25.65" />
        <rect class="cls-1" x="89.69" y="16.03" width="0.39" height="2.94" />
        <path class="cls-2" d="M12.94,15.68l-.65-.52A3.45,3.45,0,0,1,11,12.22h0a3.47,3.47,0,0,1-1.3,2.94L9,15.68a3.93,3.93,0,0,0-1.8,3.16,3.78,3.78,0,1,0,7.55,0,3.93,3.93,0,0,0-1.8-3.16M8.8,21.29l.33-.21a5.21,5.21,0,0,0,.93,1,4,4,0,0,1-1.26-.82m.58-4.82a3.46,3.46,0,0,0-.56,4.1l-.46.22a3.32,3.32,0,0,1-.6-1.95,4,4,0,0,1,1.93-3.16l.67-.52a5.76,5.76,0,0,1-1,1.31" />
        <path class="cls-3" d="M17.5,18.84h-2a4.56,4.56,0,1,1-7.1-3.78l.54-.34a4.54,4.54,0,0,0,2-3.78l0-3.52a6.6,6.6,0,0,1-3.17,5.64l-.25.15A6.6,6.6,0,0,0,10.9,25.44h0a6.6,6.6,0,0,0,6.6-6.6" />
        <path class="cls-4" d="M10.9,29.76A10.9,10.9,0,0,1,5.21,9.56l.41-.24A10.9,10.9,0,0,0,10.86,0l0,5.82a7.52,7.52,0,0,1-3.32,6.24l-.89.56A7.53,7.53,0,0,0,10.9,26.39Z" />
        <path class="cls-4" d="M13.55,27.1a.65.65,0,0,1,.82.47.66.66,0,1,1-1.26.37.65.65,0,0,1,.44-.84M13.23,26a1.81,1.81,0,0,0-1.35,2.28,1.79,1.79,0,0,0,2.36,1.18,1.8,1.8,0,0,0,1.35-2.27A1.82,1.82,0,0,0,13.23,26" />
        <path class="cls-4" d="M16.53,25.38l.09-.08c.16-.13.37-.29.55-.08s0,.4-.15.55l-.1.08Zm.71,2.73.93-.79-.68-.8L18,26.1a1.07,1.07,0,0,0,.14-1.63,1.26,1.26,0,0,0-1.92-.07l-1.22,1Z" />
        <path class="cls-4" d="M19.62,23.72,18.8,23l0,0,.43.14.61.17Zm.62.6.46-.83.44.11.66-1.18-3.66-.61L17.45,23l2.46,2.77.66-1.18Z" />
        <polygon class="cls-4" points="18.53 20.86 18.72 19.6 21.07 19.96 21.23 18.9 22.34 19.07 21.99 21.38 18.53 20.86" />
    </g>
</svg>